<svg xmlns="http://www.w3.org/2000/svg" width="240" height="240" fill="none"><path fill="#DDE8FB" stroke="#0061FE" stroke-linecap="round" stroke-linejoin="round" stroke-width="1.5" d="M64.56 99.95c-18.65 11.07-27.14 31.12-34.3 50.67-2.63 7.15 1.98 28-.62 40.42-1 4.78-4.09 32.24-4.26 39.48 7.13.5 2.71-.16 9.79-.16 6.44 0 45.48-.1 47-.68 3.11-1.22.6-10.93.24-14.62-.47-5.03-1.31-10.27-1.61-15.38-.52-8.45-1.39-14.33-1.73-21.56-.51-10.87-.64-17.46-1.12-26.26-.42-7.45-.26-14.89-.76-22.27-.77-11.17-.21-22.68-.7-33.9-2.76.34-9.65 2.93-11.92 4.27l-.01-.01Zm86.54 75.51c-.63-3.75-3.97-29.59-3.74-29.6 14.83-1.45 31.71-2.78 46.04-7.24 11.64-3.62 19.69-12.12 24.83-23.53 5.96-13.19 6.23-41.21 6.47-51.48.51-22 .51-23.8-3.36-24.32-7.35-.4-13.52.37-21-.02-3.79-.2-8.06.3-11.85.28-4.97 0-5.79 1.8-5.96 5.7-.5 12.42-.25 22.68-1.06 34.11-.36 5.06-1.78 10.12-4.12 12.97-2.7 3.29-7.37 5.21-11.5 5.44-18.69 1.05-38.54-3.63-57.13-2.25-.17 7.76.18 16.12-.19 23.5-.27 5.13-.67 27.31-.67 33.3v26.06c0 10.51-.08 48.2.43 50.51.14.67 5.27.26 5.95.26 3.52 0 8.24-.16 11.64 0 8.42.4 21.54.26 29.75.26 2.32 0 2.9-.28 2.59-3.88-.77-8.79-6.13-44.06-7.14-50.07h.01Z"/><path stroke="#0061FE" stroke-linecap="round" stroke-linejoin="round" stroke-width="1.5" d="M109.58 95.93c9.32 15.43 21.73 38.55 22.43 52 .27 5.34-3.45 7.59-7.94 12.06-3.2 3.2-4.31 3.2-8.02 7.6-3.6 4.25-3.9 5.15-.77 9.82 4 6 9.06 9.57 8.8 15.78-.2 4.9-2.86 12.94-6.86 21.49a203.36 203.36 0 0 1-7.64 13.96"/><path fill="#0061FE" d="M83.9 86.02c-.17 3.1-.17 5.34-.34 8.1v.17c-2.07 0-4.83.87-6.72 1.38l2.46 92.1c7.76.17 21.3-1.36 28.88-.67l.2-91.78a20.15 20.15 0 0 0-7.41-1.55v-.18c0-2.93-.17-5.5-.17-7.76"/><path stroke="#0061FE" stroke-linecap="round" stroke-linejoin="round" stroke-width="1.5" d="M83.9 86.02c-.17 3.1-.17 5.34-.34 8.1v.17c-2.07 0-4.83.87-6.72 1.38l2.46 92.1c7.76.17 21.3-1.36 28.88-.67l.2-91.78a20.15 20.15 0 0 0-7.41-1.55v-.18c0-2.93-.17-5.5-.17-7.76"/><path fill="#DDE8FB" d="M70.61 62.74c1.21-6.21 5.2-9.57 8.45-11.55 3.96-2.4 8.92-2.21 11.9-.69 2.97 1.51 5.26 4.66 6.72 8.28 1.12 2.82 1.63 6.4 4.65 7.95.86.44 3.03.7 4 .77 3.01.18 6.1-.13 9.11-.09 3.28.05 5.74.36 9.02-.04 1.4-.17 3.33-.1 4.4-1.17 1.17-1.17 1.2-2.9 1.42-4.66.1.17.42-4.98 0-7.43-.34-2.14-.64-4.39-1.1-6.51-1.1-5-4.35-9.22-7.53-13.12-7.99-9.84-20.74-13.79-33.03-11.98-4.85.71-10.96 2.88-15.02 5.48A56.1 56.1 0 0 0 62.5 37a40.9 40.9 0 0 0-6.76 9.29l-.46.94c-1.58 3.46-3.64 9.4-3.9 13.02-.18 2.65 0 5.7.77 8.02.81 2.42 5.36 1.85 7.76 1.55"/><path stroke="#0061FE" stroke-linecap="round" stroke-linejoin="round" stroke-width="1.5" d="M70.61 62.74c1.21-6.21 5.2-9.57 8.45-11.55 3.96-2.4 8.92-2.21 11.9-.69 2.97 1.51 5.26 4.66 6.72 8.28 1.12 2.82 1.63 6.4 4.65 7.95.86.44 3.03.7 4 .77 3.01.18 6.1-.13 9.11-.09 3.28.05 5.74.36 9.02-.04 1.4-.17 3.33-.1 4.4-1.17 1.17-1.17 1.2-2.9 1.42-4.66.1.17.42-4.98 0-7.43-.34-2.14-.64-4.39-1.1-6.51-1.1-5-4.35-9.22-7.53-13.12-7.99-9.84-20.74-13.79-33.03-11.98-4.85.71-10.96 2.88-15.02 5.48A56.1 56.1 0 0 0 62.5 37a40.9 40.9 0 0 0-6.76 9.29l-.46.94c-1.58 3.46-3.64 9.4-3.9 13.02-.18 2.65 0 5.7.77 8.02.81 2.42 5.36 1.85 7.76 1.55"/><path fill="#DDE8FB" stroke="#0061FE" stroke-linecap="round" stroke-linejoin="round" stroke-width="1.5" d="M115.63 67.74c-1.56 11.55-10.16 17.6-20.53 18.45-5.1.41-11.63 0-16.04-2.6-3.1-1.8-7.6-5.7-8.45-9.48a7.47 7.47 0 0 1-3.79 1.04c-6.92.04-8.74-8.45-4.06-12.35 2.13-1.77 5.66-2 7.62.17l.25-.24c1.2-6.21 5.2-9.58 8.44-11.56 3.96-2.4 8.92-2.2 11.9-.68 2.97 1.51 5.27 4.66 6.72 8.28 1.13 2.82 1.64 6.4 4.66 7.94.85.45 3.02.7 4 .77 3 .19 6.1-.12 9.1-.08l.17.34Z"/><path stroke="#0061FE" stroke-linecap="round" stroke-linejoin="round" stroke-width="1.5" d="M77 63.08c.16-3.44 2.7-6.54 7.23-7.23a7.48 7.48 0 0 1 8.79 7.23m-.67 5.87c.53.17 1.7-.1 2.76 0m-8.29 6.21c2.68 3.46 9.67 3.24 12.42 0m-33.8-7.59c1.21.51 1.71.85 2.5 1.21"/><path fill="#0061FE" stroke="#0061FE" stroke-linecap="round" stroke-linejoin="round" stroke-width="1.5" d="M84.96 63.98a.41.41 0 1 0 0-.83.41.41 0 0 0 0 .83Z"/><path fill="#DDE8FB" d="M29.3 233.55a511 511 0 0 1-16.35.46c1.15-3.92 1.66-5.47 1.6-9.22l-.5-2.88 8.51-.18"/><path stroke="#0061FE" stroke-linecap="round" stroke-linejoin="round" stroke-width="1.5" d="M29.3 233.55a511 511 0 0 1-16.35.46c1.15-3.92 1.66-5.47 1.6-9.22l-.5-2.88 8.51-.18"/><path fill="#DDE8FB" d="M29.3 169.04c-2.99 0-22.58.7-26.72.7-4.6 20.96 2.53 34.55.45 54.84 5.76.22 15.4-.93 19.59-.93"/><path stroke="#0061FE" stroke-linecap="round" stroke-linejoin="round" stroke-width="1.5" d="M29.3 169.04c-2.99 0-22.58.7-26.72.7-4.6 20.96 2.53 34.55.45 54.84 5.76.22 15.4-.93 19.59-.93"/><path fill="#DDE8FB" d="m105.66 233.5-85.33-26.22c-5.76-13.13 8.99-98.06 39.84-108.41 7.95-2.67 8-3.45 16.33-3.2"/><path stroke="#0061FE" stroke-linecap="round" stroke-linejoin="round" stroke-width="1.5" d="m105.66 233.5-85.33-26.22c-5.76-13.13 8.99-98.06 39.84-108.41 7.95-2.67 8-3.45 16.33-3.2"/><path fill="#DDE8FB" d="M56.72 205.45c-4.61-1.84-14.51-2.54-21.2-2.31-4.8.17-10.6 1.15-15.2 4.14"/><path stroke="#0061FE" stroke-linecap="round" stroke-linejoin="round" stroke-width="1.5" d="M56.72 205.45c-4.61-1.84-14.51-2.54-21.2-2.31-4.8.17-10.6 1.15-15.2 4.14"/><path fill="#DDE8FB" d="M67.1 233.8c3.8-.38 36.79-.44 42.48-.44 2.09-10.14 3.9-17.73 2.28-29.75-.85-6.34-2.3-16.13-.92-23.73-.7.22-11.31.11-14.08.11l-38.97.71"/><path stroke="#0061FE" stroke-linecap="round" stroke-linejoin="round" stroke-width="1.5" d="M67.1 233.8c3.8-.38 36.79-.44 42.48-.44 2.09-10.14 3.9-17.73 2.28-29.75-.85-6.34-2.3-16.13-.92-23.73-.7.22-11.31.11-14.08.11l-38.97.71"/><path fill="#DDE8FB" stroke="#0061FE" stroke-linecap="round" stroke-linejoin="round" stroke-width="1.5" d="M55.84 224.08c6.45 0 37.76-.43 41.44-.43 2.99-11.75 1.38-23.39-.07-34.05-1.07-7.87-1.07-13.41.77-21-5.76.27-11.24 0-19.14.22-6.43.17-12.2.23-20.27.23-1.5 5.26-.92 27.2-1.83 36.41l-.9 18.63v-.01Z"/><path stroke="#0061FE" stroke-linecap="round" stroke-linejoin="round" stroke-width="1.5" d="M85.07 176.19c-2.08 8.52 1.15 14.06.46 22.35m-15.67 0c1.83-8.76-.93-15.9.7-21.9"/><path fill="#DDE8FB" stroke="#0061FE" stroke-linecap="round" stroke-linejoin="round" stroke-width="1.5" d="M20.67 207.3c.38 7.85 1.07 16.1 5.81 22.77 3.6 5.06 11.81 11.31 17.8 6.93l-.05-.23a9.7 9.7 0 0 0 6.97.23l.74-.22c2.95 1.39 5.6.96 8.36-1.18l.44-.1c2.02.77 4.59 1.07 5.78-.47 1.61-2.08-.45-5.31-1.02-7.03-1.11-3.32-2.65-6.51-4.16-9.68 14.74 3 20.97-7.13 15.67-9.44-5.59-2.42-13.6-1.16-20.05-3.46h-.22c-4.62-1.84-14.52-2.54-21.2-2.31-4.81.17-10.6 1.15-15.21 4.14h.34v.05Z"/><path stroke="#0061FE" stroke-linecap="round" stroke-linejoin="round" stroke-width="1.5" d="M75.27 96.02c-7.42 17.59-11.14 31.73-15.11 45.7-2.06 7.2 14.03 21.97 18.68 27.07"/><path fill="#0061FE" d="M214.64 41.05c-.5-2.94 5-4 6.08-1.67.5 1.08.05 1.9-.76 2.53-.86.67-2.06.82-3.1.63-.77-.13-2.06-.47-2.23-1.5h.01Z"/><path fill="#DDE8FB" d="M188.43 25.49v-8.87c0-7.07 2.75-9.43 9.43-9.43 7.25 0 22.84-.19 30.98-.19 4.56 0 9.97 1.62 9.97 9.6 0 11.24.19 36.43.19 47.3 0 4.97-3.99 7.43-11.05 7.43-5.93 0-17.52-.37-27.01-.91-9.6-.54-13.6.07-13.6-7.07 0-9.78-.18-13.77.73-23.19"/><path stroke="#0061FE" stroke-linecap="round" stroke-linejoin="round" stroke-width="1.5" d="M188.43 25.49v-8.87c0-7.07 2.75-9.43 9.43-9.43 7.25 0 22.84-.19 30.98-.19 4.56 0 9.97 1.62 9.97 9.6 0 11.24.19 36.43.19 47.3 0 4.97-3.99 7.43-11.05 7.43-5.93 0-17.52-.37-27.01-.91-9.6-.54-13.6.07-13.6-7.07 0-9.78-.18-13.77.73-23.19"/><path stroke="#0061FE" stroke-linecap="round" stroke-linejoin="round" stroke-width="1.5" d="M195.88 22.47c-.16-2.55-.2-5.2-.04-7.75 7.92-.17 28.12-.47 35.72-.47v7.98c-10.5 0-25.01.25-35.68.25v-.01Z"/><path fill="#DDE8FB" d="M181.9 46.5c5.99-.73 7.44-8.33 5.2-10.94 2.94.29 6.89-.06 9.66-1.11 2.06-.77 3.1-1.58 3.27-3.9.35-5.44-9.43-5.03-13.44-4.38-2.35.39-4.54 2.01-6.5 3.37-8.55 6-10.22 16.55-2.54 24.2 2.83 2.82 5.61 3.62 9.6 3.8l.78-16"/><path stroke="#0061FE" stroke-linecap="round" stroke-linejoin="round" stroke-width="1.5" d="M181.9 46.5c5.99-.73 7.44-8.33 5.2-10.94 2.94.29 6.89-.06 9.66-1.11 2.06-.77 3.1-1.58 3.27-3.9.35-5.44-9.43-5.03-13.44-4.38-2.35.39-4.54 2.01-6.5 3.37-8.55 6-10.22 16.55-2.54 24.2 2.83 2.82 5.61 3.62 9.6 3.8l.78-16"/><path fill="#0061FE" stroke="#0061FE" stroke-linecap="round" stroke-linejoin="round" stroke-width="1.5" d="M228.66 27.3c2.05 0 3.8.18 3.99 2.18.15 1.7 0 3.67 0 5.44v5.61c0 2.08-1.83 2.18-3.18 2.18-1.21 0-3.52.17-3.72-1.27-.27-1.99-.14-2.92-.18-4.53-.19-7.7-.09-9.6 3.07-9.6l.02-.01Zm-2.2 29.1c1.53-.3 5.45-.44 6.04.43.4.57.69 3.09.06 3.9-.78 1-5.56.59-6.44.19-.95-.45-1.37-4.18.34-4.5v-.02Zm.2-9.07c1.53-.3 5.25-.42 5.84.44.4.57.42 3.19.18 3.77-.28.64-1.44.6-2.78.6-1.21 0-2.8 0-3.68-.38-.95-.44-.9-4.18.46-4.45l-.02.02Z"/><path stroke="#0061FE" stroke-linecap="round" stroke-linejoin="round" stroke-width="1.5" d="M228.73 17.51c.03.5 0 1.21 0 1.81m-3.53-1.81c.07.29.07 1.4.08 2m-4.34-2c.45-.07.98 0 1.42.03-.14.69-.4 1.44-.53 2.15"/><path fill="#0061FE" stroke="#0061FE" stroke-linecap="round" stroke-linejoin="round" stroke-width="1.5" d="M214.64 32.09c-.5-2.94 5-4 6.08-1.67.5 1.08.05 1.9-.76 2.53-.86.67-2.06.82-3.1.63-.77-.13-2.06-.47-2.23-1.5h.01Zm-10.14 0c-.5-2.94 5-4 6.08-1.67.5 1.08.04 1.9-.77 2.53-.85.67-2.05.82-3.09.63-.77-.13-2.06-.47-2.24-1.5h.02Zm10.14 8.96c-.5-2.94 5-4 6.08-1.67.5 1.08.05 1.9-.76 2.53 0 0-1.53 1-3.1.63-1.56-.35-2.23-1.5-2.23-1.5h.01Zm-10.14 0c-.5-2.94 5-4 6.08-1.67.5 1.08.04 1.9-.77 2.53-.85.67-2.05.82-3.09.63-.77-.13-2.06-.47-2.24-1.5h.02Zm-10.16 0c-.5-2.94 5-4 6.09-1.67.5 1.08.04 1.9-.77 2.53-.86.67-2.06.82-3.1.63-.77-.13-2.06-.47-2.23-1.5h.01Zm20.3 8.95c-.5-2.93 5-4.01 6.08-1.66.5 1.08.05 1.9-.76 2.53-.86.67-2.06.82-3.1.63-.77-.13-2.06-.47-2.23-1.5h.01Zm-10.14 0c-.5-2.93 5-4.01 6.08-1.66.5 1.08.04 1.9-.77 2.53-.85.67-2.05.82-3.09.63-.77-.13-2.06-.47-2.24-1.5h.02Zm-10.16 0c-.5-2.93 5-4.01 6.09-1.66.5 1.08.04 1.9-.77 2.53-.86.67-2.06.82-3.1.63-.77-.13-2.06-.47-2.23-1.5h.01Zm20.3 8.97c-.5-2.94 5-4.02 6.08-1.67.5 1.08.05 1.9-.76 2.53-.86.67-2.06.82-3.1.63-.77-.13-2.06-.47-2.23-1.5h.01Zm-10.14 0c-.5-2.94 5-4.02 6.08-1.67.5 1.08.04 1.9-.77 2.53-.85.67-2.05.82-3.09.63-.77-.13-2.06-.47-2.24-1.5h.02Zm-10.16 0c-.5-2.94 5-4.02 6.09-1.67.5 1.08.04 1.9-.77 2.53-.86.67-2.06.82-3.1.63-.77-.13-2.06-.47-2.23-1.5h.01Z"/><path stroke="#0061FE" stroke-linecap="round" stroke-linejoin="round" stroke-width="1.5" d="M51.38 225.79c2.28 2.99 4.36 6.22 7.32 8.6.52.41 1.33.86 2.24 1.21m-25.95-9.36c2.76 4.62 4.15 7.41 7.62 9.66.6.4 1.2.71 1.8.96m-1.81-10.62c2.44 3.65 4.46 7.61 8.31 9.99.41.26.81.47 1.21.65"/></svg>