<svg xmlns="http://www.w3.org/2000/svg" width="240" height="240" fill="none"><path fill="#DDE8FB" d="M178.11 105.07c.27-.1.6-.45.87-.48.69-.1.48.3.4.95-.12 1.07-.12 2.15-.24 3.24-.15 1.27-.28 2.6-.37 3.85-.04.62-.16 1.18.03 1.78.32 1 .85 3.25 1.69 3.88 1 .74 2.36.2 3.53.24-.67.88 1.58-1.67 2.01-3.21.47-1.69.15-2.77 1.06-3.87.42-.52-.15-2.16.03-2.88.2-.86.6-1.77.64-2.66.07-1.62.34-3.3.18-4.9.08.86 2.9-1.73 3.09-1.98.86-1.09.95-2.71.35-3.94-.2-.44-.48-.86-.73-1.27-.18-.27-.75-.76-.8-1.04-.13-.5.24-1 .26-1.5 0-.6-.24-.94-.56-1.4-.75-1.05-1.4-2.02-2.57-2.67a22.3 22.3 0 0 0-3.13-1.4c-.78-.28-1.5-.83-2.3-1.02-1.7-.4-3.29-.27-5.02-.23-.85.01-1.7-.07-2.52-.06-1.72 0-3.43.82-5.04 1.28-2.44.7-4.14 1.84-5.9 3.66-3.99 4.14-1.54 10 .54 14.32.47.99.96 2.47 1.65 3.14.94-2-.2.73 1.29 2.16.63.6 2.1 2.03 1.26 2.65 1.02.59 2.66.54 4 .48 1.1-.05 1.86-.96 2.42-1.81.63-.97.45-1.75.35-2.85a5.3 5.3 0 0 0-.5-1.87c-.17-.41-.51-.85-.38-1.3 1.57.36 2.73 1.34 4.43.7h-.02Z"/><path stroke="#0061FE" stroke-linecap="round" stroke-linejoin="round" stroke-width="1.5" d="M174.9 98.99c7.88 1.39 3.43 11.83 4.17 16.83.42 2.9 5.13 4.42 7.06.77 1.48-2.78 2.61-16.3 1.07-19.06-1.81-3.3-5.67-4.88-7.7-5.63"/><path stroke="#0061FE" stroke-linecap="round" stroke-linejoin="round" stroke-width="1.5" d="M183.6 88.55c2.55.88 5.5 2.91 6.83 4.76.78 1.1 1.46 2.33 1.35 3.71-.12 1.25-1 3.17-3.48 4.18m-13.53-2.24c-2.7 0-2.78 3-1.38 5.54 1.51 2.71 2 6.07-.51 7.17-6.6 2.9-10.64-11.25-11.42-16.25-.75-4.78 3.55-9.26 9.34-10.3"/><path stroke="#0061FE" stroke-linecap="round" stroke-linejoin="round" stroke-width="1.5" d="M170.49 85.19c4.07-.9 8.12-.8 9.84-.5 4.34.76 10.55 2.92 9.86 7.8M173 103.65c2.4 2.25 4.32 1.68 6.07 1.18"/><path fill="#DDE8FB" stroke="#0061FE" stroke-linecap="round" stroke-linejoin="round" stroke-width="1.5" d="M151.74 109.04c6.36 1.13 11.89-2.21 15.14-7.6 7.45-12.34 1.34-22.23-11-26.9-15.17-5.71-38.36-9.67-54.44-6.21-2.48.53-3.73-3.05-5.48-1.51-7.57 6.7-8.43 21.24-3.83 29.04 2.3 3.92 5.98 6.13 10.88 4.83l48.7 8.35h.03Z"/><path fill="#DDE8FB" d="M67.68 137.07a101.7 101.7 0 0 0-31.86 8.5c-6.09 2.75-13.39 6.12-18.55 10.33-3.6 2.94-5.85 5.48-6.64 9.26-7.1-1.24-9.45-12.77-9.62-18.59-.27-9.56 3.71-20.48 7.86-28.94 7.07-14.4 18.6-26.62 30.32-37.35l34.23-14.2 25.69 1.53s14.66 18.21 21.94 33.97c9.96 21.5 8.86 34.51 6.35 32.05l-59.71 3.46"/><path stroke="#0061FE" stroke-linecap="round" stroke-linejoin="round" stroke-width="1.5" d="M67.68 137.07a101.7 101.7 0 0 0-31.86 8.5c-6.09 2.75-13.39 6.12-18.55 10.33-3.6 2.94-5.85 5.48-6.64 9.26m0 0-.3.05m.3-.05c-7.1-1.24-9.45-12.77-9.62-18.59-.27-9.56 3.71-20.48 7.86-28.94 7.07-14.4 18.6-26.62 30.32-37.35l34.23-14.2 25.69 1.53s14.66 18.21 21.94 33.97c9.96 21.5 8.86 34.51 6.35 32.05l-59.71 3.46"/><path fill="#0061FE" stroke="#0061FE" stroke-linecap="round" stroke-linejoin="round" stroke-width="1.5" d="M46.74 51.73c.25-14.61 13.27-25.93 24.84-28.85 14.66-3.7 28.73-2.8 38.83 10.47l.06.34a8.38 8.38 0 0 0-3.43 1.02c-6.29 3.36-8.96 7.17-16.74 5.6-5.43-1.1-8.39-3.8-11.67-7.33-.44 5.46-3.84 10.7-8.43 13.81-2.54 1.72-4.93 3.23-8 3.82-2.25.44-6.34.5-8.66-.1h-.11c-2.5-.5-4.87.4-6.53 1.96l-.16-.74Z"/><path fill="#DDE8FB" d="M116.74 38.22a5.84 5.84 0 0 0-6.26-4.53 8.39 8.39 0 0 0-3.43 1.02c-6.29 3.36-8.95 7.17-16.74 5.6-5.42-1.1-8.39-3.8-11.67-7.33-.44 5.46-3.84 10.7-8.43 13.81-2.54 1.72-4.92 3.23-8 3.82-2.25.44-6.34.5-8.65-.1h-.12c-2.5-.5-4.87.4-6.52 1.96-2.79 2.6-3.52 7.05.68 9.73 0 0 3.95 1.67 7.26-.38.7 1 5.8 7.21 12.21 10.35 5.22 2.55 12.07 2.21 12.07 2.21 3.77 1.34 18.97.08 28.16-14.03 4.24-6.49 4.68-16.46 5-16.65 5.2-.47 4.46-5.48 4.46-5.48"/><path stroke="#0061FE" stroke-linecap="round" stroke-linejoin="round" stroke-width="1.5" d="M116.74 38.22a5.84 5.84 0 0 0-6.26-4.53 8.39 8.39 0 0 0-3.43 1.02c-6.29 3.36-8.95 7.17-16.74 5.6-5.42-1.1-8.39-3.8-11.67-7.33-.44 5.46-3.84 10.7-8.43 13.81-2.54 1.72-4.92 3.23-8 3.82-2.25.44-6.34.5-8.65-.1h-.12c-2.5-.5-4.87.4-6.52 1.96-2.79 2.6-3.52 7.05.68 9.73 0 0 3.95 1.67 7.26-.38.7 1 5.8 7.21 12.21 10.35 5.22 2.55 12.07 2.21 12.07 2.21 3.77 1.34 18.97.08 28.16-14.03 4.24-6.49 4.68-16.46 5-16.65 5.2-.47 4.46-5.48 4.46-5.48"/><path stroke="#0061FE" stroke-linecap="round" stroke-linejoin="round" stroke-width="1.5" d="M77.37 58.58c5.4 2.73 13.56-1.83 13.82-6.87M80.25 50.6c-.98-2.52 3.55-5.76 5.53-2.7m-10.95-.97c-.8-3.71 4.38-6.32 6.58-3.35.15-3.09 4.34-4.8 6.59-2.03"/><path fill="#DDE8FB" d="M122.23 193.7c1.1 3.64 2.55 6.66 3.63 9.54 1.34 3.49 2.73 7.6 4.6 10.83l43.33.28-28.62-72.14-44.67 2.59 21.74 48.88"/><path stroke="#0061FE" stroke-linecap="round" stroke-linejoin="round" stroke-width="1.5" d="M122.23 193.7c1.1 3.64 2.55 6.66 3.63 9.54 1.34 3.49 2.73 7.6 4.6 10.83l43.33.28-28.62-72.14-44.67 2.59 21.74 48.88"/><path fill="#DDE8FB" stroke="#0061FE" stroke-linecap="round" stroke-linejoin="round" stroke-width="1.5" d="M168.5 214.16h-11.94c-2 0-11.08.25-13.4 0l-11.68-.12c-4.5.32-9.43 2.1-12.54 5.35-3.38 3.54-4.86 8.4-2.43 13.52 1.14 2.39 4.5 5.48 6.82 5.6h.48c20.82.37 54.92.12 54.92.12l-10.23-24.47Z"/><path fill="#0061FE" stroke="#0061FE" stroke-linecap="round" stroke-linejoin="round" stroke-width="1.5" d="M128.85 146.4c-1.83 6.02-7.33 21.4-8.94 25.74-1.4 3.78-20.82 54.79-25.02 66.47 1.55.09 8.03.18 11.14 0 3.1-8.22 17.02-48.13 19.47-54.58 2.05-5.38 8.1-21.21 10.66-28.7-.55 14.79-2.34 37.42-2.92 48.21-.59 10.59-1.84 21.73-1.84 35.07h10.78c.51-7.67.98-24.78 1.1-32.5.2-13.03 1.83-37.44 2-51.14 4.33 10.65 9.5 25.4 14.8 38.9 2.57 6.55 6.76 15.9 9.25 22.5 1.9 5 6.47 16.22 9.38 22.24 4.21 0 6.32.09 10.05-.17-4.21-11.51-8.62-22.64-11.32-29.96a1177.25 1177.25 0 0 0-15.7-38.17c-1.03-2.29-7.3-18.81-9.5-24.3l-23.39.37v.02Z"/><path fill="#DDE8FB" stroke="#0061FE" stroke-linecap="round" stroke-linejoin="round" stroke-width="1.5" d="M62.38 174.38c-14.69 1.46-29.55.77-44.26-.63-3.2-.3-6.62-.6-9.45.93-2.83 1.52-4.48 5.66-2.32 8.05.84.93 2.07 1.42 3.25 1.81a40.11 40.11 0 0 0 11.47 2.04L2.29 238.2c3.52.12 7.05.24 10.57.34 6.55-16.63 13.1-33.24 19.67-49.86.24-.6.5-1.23 1.02-1.62.57-.42 1.34-.45 2.06-.46l20.16-.31c.7 0 1.45 0 2.05.35.82.48 1.16 1.48 1.44 2.4l14.88 49.4c2.43 0 4.87-.14 7.3-.2 1.38-.04 5.32.7 5.57-1.28.1-.81-.3-1.57-.66-2.3-1.82-3.64-2.97-7.54-4.13-11.43L72.1 189.3c-.11-.4-.23-.82-.11-1.21.26-.9 1.45-1.03 2.37-1.07 2.98-.15 6.26-1.41 7.36-4.18 1.35-3.4-1.42-7.29-4.84-8.56-3.41-1.28-7.21-.7-10.85-.25-1.2.14-2.4.28-3.6.4l-.05-.04Z"/><path fill="#DDE8FB" stroke="#0061FE" stroke-linecap="round" stroke-linejoin="round" stroke-width="1.5" d="M85.21 215.6c10.95.74 14.25 7.68 12.6 14.44-1.62 6.71-6.62 8.03-12.6 8.4-7.93.48-15.7.17-25.2.17-6.7 0-15.53.37-19.91-3.1-6.64-5.27-3.29-12.61-.18-18.45l.18-.37c13.7 1.2 29.23.46 42.73-.73 1.51-.13 2.4-.3 3.1-.59l-.72.22v.02Z"/><path stroke="#0061FE" stroke-linecap="round" stroke-linejoin="round" stroke-width="1.5" d="M217.58 77.9c-.97-.47-7.45-3.6-8.96-4.15m-2.01 14.09c1.2 0 7-.01 8.18-.03M220 63.8c.3.5 3.88 6.4 4.15 6.92"/><path fill="#DDE8FB" stroke="#0061FE" stroke-linecap="round" stroke-linejoin="round" stroke-width="1.5" d="m67.68 137.07 36.51 10.05c21.73 5.11 18.45 16.99 16.44 23.01-2.11 6.35-6.57 13.94-10.63 19.2-4.28 5.53-8.12 10.86-13.1 15.86-2.2 2.2-5.2 5.25-7.5 7.31-1.79 1.6-2.4 2.42-3.49 2.89-.69.3-1.58.45-3.09.59-13.5 1.18-29.04 1.92-42.74.73 2.38-4.56 10.03-15.66 12.42-19.18 3.11-4.56 13.33-19.35 16.63-23.19-7.2.23-10.7.25-14.25.37-5.74.17-14.14.7-19.91.36-10.54-.63-19.35-1.1-24.66-9.86l.3-.05c.8-3.78 3.04-6.33 6.65-9.26 5.16-4.21 12.46-7.58 18.54-10.34a102.6 102.6 0 0 1 31.86-8.49h.02Z"/><path stroke="#0061FE" stroke-linecap="round" stroke-linejoin="round" stroke-width="1.5" d="M81.31 221.58c.73-2.44 2.62-4.48 4.63-5.85"/><path fill="#DDE8FB" d="M81.93 80.84c.26-3.33-2.32-6.63-5.2-7.95-3.38-1.56-7.56-.3-10.74-2.52-6.33-4.39-5.8-14.31-12.17-10.92-.69.36-1.14.9-1.4 1.56l-.55.1a5.03 5.03 0 0 0-5.11 3.42c-.08.25-.12.53-.14.8l-.1-.08c-2.92.2-4.56 3.81-3.47 7.27l-.18.28c-.73-.25-3.65.25-4.13 2.8-.62 3.23 1.42 6.1 3.41 8.4 6.09 7.07 14.74 4.87 20.09 6.7 0 0 4.15-5.07 8.76-6.84 4.62-1.78 10.96-3.02 10.96-3.02"/><path stroke="#0061FE" stroke-linecap="round" stroke-linejoin="round" stroke-width="1.5" d="M81.93 80.84c.26-3.33-2.32-6.63-5.2-7.95-3.38-1.56-7.56-.3-10.74-2.52-6.33-4.39-5.8-14.31-12.17-10.92-.69.36-1.14.9-1.4 1.56l-.55.1a5.03 5.03 0 0 0-5.11 3.42c-.08.25-.12.53-.14.8l-.1-.08c-2.92.2-4.56 3.81-3.47 7.27l-.18.28c-.73-.25-3.65.25-4.13 2.8-.62 3.23 1.42 6.1 3.41 8.4 6.09 7.07 14.74 4.87 20.09 6.7 0 0 4.15-5.07 8.76-6.84 4.62-1.78 10.96-3.02 10.96-3.02"/><path stroke="#0061FE" stroke-linecap="round" stroke-linejoin="round" stroke-width="1.5" d="M52.38 61.01c-1.17 2.86 1.18 7.86 2.54 9.67 1.42 1.87 4.22 4.79 7.87 6M46.6 65.32c-.23 3.07 2.49 7.66 4.27 9.67 1.84 2.06 3.9 3.41 7.3 4.63m-15.15-7.1c.19.59.45 1.18.79 1.73 1.82 2.92 5.85 7.8 9.73 8.77"/><path fill="#DDE8FB" d="M67.87 135.52c0 2.58 3.47 6.66 5.85 7.97 3.47 1.94 8.53 2.9 13.51 3.25 6.4.42 16.38.13 21.73 0 18.08-.43 24.73-1.3 38.35-1.3 13.62 0 45.98.6 54.06.6 6.36 0 17.16-1.67 22.63-6.93 2.3-2.21 3.3-2.93 3.3-6.38-4.52 0-123.03-.7-159.2 0"/><path stroke="#0061FE" stroke-linecap="round" stroke-linejoin="round" stroke-width="1.5" d="M67.87 135.52c0 2.58 3.47 6.66 5.85 7.97 3.47 1.94 8.53 2.9 13.51 3.25 6.4.42 16.38.13 21.73 0 18.08-.43 24.73-1.3 38.35-1.3 13.62 0 45.98.6 54.06.6 6.36 0 17.16-1.67 22.63-6.93 2.3-2.21 3.3-2.93 3.3-6.38-4.52 0-123.03-.7-159.2 0"/><path fill="#DDE8FB" d="M50.5 121c2.75 4.75 9.05 10.3 12.43 12.53a43.5 43.5 0 0 0 13.32 5.74c10.78 2.55 21.7.44 27.94-5.85 4.04-4.06 3.19-13.24 2.51-18.41-.98-7.54-3.49-14.8-6.19-21.87-3.15-8.26-8.47-12.85-17.51-12.32a30.84 30.84 0 0 0-12.06 3.02c-6.86 3.31-11.39 8.46-11.2 16.23.17 6.58 2.57 13.56 6.09 19.1"/><path stroke="#0061FE" stroke-linecap="round" stroke-linejoin="round" stroke-width="1.5" d="M50.5 121c2.75 4.75 9.05 10.3 12.43 12.53a43.5 43.5 0 0 0 13.32 5.74c10.78 2.55 21.7.44 27.94-5.85 4.04-4.06 3.19-13.24 2.51-18.41-.98-7.54-3.49-14.8-6.19-21.87-3.15-8.26-8.47-12.85-17.51-12.32a30.84 30.84 0 0 0-12.06 3.02c-6.86 3.31-11.39 8.46-11.2 16.23.17 6.58 2.57 13.56 6.09 19.1"/><path fill="#DDE8FB" stroke="#0061FE" stroke-linecap="round" stroke-linejoin="round" stroke-width="1.5" d="M209.65 132.57c7.52 0 8.91-4.62 17.06-22.75 10.65-23.66 17.07-34.3 7.9-37.8-6.8 13.58-19.3 39.62-22.94 46.6-3.2 6.14-7.24 4.86-10.92 4.86a20.4 20.4 0 0 1-.82-3.57c-2.29-.15-4.59-.1-7.07-.1-.35 1.65-.45 2.3-.72 3.69-2.02 0-3.22-.05-4.78-.2-.08-1.1-.45-2.28-.64-3.38-3.67 0-4.68-.09-7.43-.09-.2 1.1-.46 2.11-.74 3.39-1.54.16-3.96.25-5.5.09-.55-1.66-.64-2.48-1.18-3.58-2.57 0-4.2.04-6.36.19-.3 1.11-.65 2.43-.53 3.58-.7.14-20.44 0-20.44 0s.82 9.07 9.28 9.07h55.83Z"/></svg>