<svg width="200" height="32" fill="none" xmlns="http://www.w3.org/2000/svg"><g clip-path="url(#a)" fill="#FFFDFA"><path d="m151.2 24.9-8-23H135v28.5h4.8V6.7h.2l8.3 23.7h5.5l8-23.6h.2v23.6h4.8V1.9h-8l-7.6 23ZM86.7 5.5h.4c3.3 0 5.8 2 6 5h5c0-5.4-4.2-9.2-11-9.2-6.7 0-10.9 3.8-10.8 8.9 0 4 2.5 6.5 7.5 7.6l5 1c2.8.6 4 2 4 3.7 0 2.5-2.2 4.2-5.5 4.2H87c-4.4 0-6.9-2.1-7-5.7h-5c.1 6.2 4.2 10 11.7 10 6.8 0 11.2-3.6 11.1-9 0-4.1-2.7-6.6-7.4-7.6l-5.2-1.1c-2.6-.6-3.9-1.7-3.9-3.5 0-2.4 2.2-4.3 5.5-4.3ZM57.5 1.3c-8.2 0-14.2 5.7-14.1 14.8 0 9.1 6 14.9 14.1 14.9 8.2 0 14.2-5.8 14-14.9.2-9-5.8-14.8-14-14.8Zm.2 25.3h-.4c-5.4 0-8.9-4-8.9-10.5S52 5.7 57.3 5.7h.4c5.4 0 8.9 4 8.9 10.4 0 6.5-3.6 10.5-8.9 10.5ZM116 1.3c-8.3 0-14.3 5.7-14.3 14.8 0 9.1 6 14.9 14.2 14.9s14.2-5.8 14.2-14.9c0-9-6-14.8-14.2-14.8Zm.2 25.3h-.5c-5.3 0-8.8-4-8.8-10.5s3.5-10.4 8.8-10.4h.5c5.3 0 8.8 4 8.8 10.4 0 6.5-3.5 10.5-8.8 10.5ZM200 16.6c0-10-6.2-15.3-14-15.3-8.3 0-14.2 5.7-14.2 14.8 0 9.6 6 14.9 14.3 14.9 6.8 0 12-3.8 13.5-10.3h-5.3a7.7 7.7 0 0 1-7.7 5.8h-.4c-5.5 0-9-3.5-9.3-9.4h23l.1-.5Zm-14.3-11h.5c4.3 0 7.4 2.7 8.4 7.5h-17.4c1-4.7 4-7.4 8.5-7.4ZM16.3 0C12 0 7.8 1.7 4.8 4.7a15.9 15.9 0 0 0 0 22.6 16.4 16.4 0 0 0 23 0 15.9 15.9 0 0 0 0-22.6c-3-3-7.2-4.7-11.5-4.7Zm-5.5 16.1c0-.6-.3-1.2-.7-1.7a2.4 2.4 0 0 0-3.4 0c-.5.5-.8 1-.8 1.7H3.3a5 5 0 0 1 1.5-3.5 5.1 5.1 0 0 1 7.2 0 5 5 0 0 1 1.5 3.5h-2.7Zm15.5 0c0-.6-.3-1.2-.7-1.7a2.4 2.4 0 0 0-3.4 0c-.5.5-.8 1-.8 1.7h-2.6a5 5 0 0 1 1.5-3.5 5.1 5.1 0 0 1 7.2 0A5 5 0 0 1 29 16h-2.7Z"/></g><defs><clipPath id="a"><path fill="#fff" d="M0 0h200v32H0z"/></clipPath></defs></svg>