<svg xmlns="http://www.w3.org/2000/svg" width="94" height="19" fill="#0061FE" viewBox="0 0 94 19"><path d="M6.9 1.07a7.89 7.89 0 0 0-5.34 3.5C.56 6.04 0 8.47.14 10.61c.24 3.47 1.84 6.07 4.5 7.36a8.2 8.2 0 0 0 3.98.85c3.36 0 5.95-1.53 7.33-4.32.6-1.2.9-2.42.97-3.98.24-4.7-1.98-8.17-5.92-9.28C9.9.95 7.98.86 6.9 1.07Zm18-.04a6.27 6.27 0 0 0-4.03 2.18c-.7.91-.93 1.7-.93 3.08 0 1.1.02 1.22.36 1.92a4.32 4.32 0 0 0 2.03 1.98c.75.38 1.29.53 3.82 1.07 1.9.4 2.35.57 2.87 1.05.47.44.64.83.64 1.49 0 1.55-1.33 2.56-3.39 2.56-2.35 0-3.9-1.02-4.27-2.8l-.14-.67h-2.9l.08.53c.39 2.88 1.79 4.48 4.51 5.18 1.24.32 3.56.32 4.8 0 1.87-.48 3.13-1.44 3.83-2.91.29-.62.35-.9.38-1.8.1-2.12-.66-3.46-2.43-4.34-.78-.4-1.33-.55-3.78-1.08-2.59-.56-3.21-.9-3.55-1.93-.34-1 .45-2.38 1.6-2.8 1.75-.65 3.75-.27 4.74.88.38.44.75 1.26.75 1.69 0 .18.12.2 1.52.2h1.53l-.08-.53a5.19 5.19 0 0 0-1.64-3.33 6.49 6.49 0 0 0-2.9-1.5C27.43.96 25.8.9 24.9 1.03Zm17.18 0a8.06 8.06 0 0 0-6.65 6.13 12.4 12.4 0 0 0-.05 5.34c1 3.98 4 6.32 8.14 6.33 2.33 0 4.22-.66 5.7-1.98a8.7 8.7 0 0 0 2.75-6.98 8.67 8.67 0 0 0-3-7.14 9.48 9.48 0 0 0-3.12-1.53 13.4 13.4 0 0 0-3.77-.18Zm41.8.04c-1 .2-1.5.36-2.28.74a8.1 8.1 0 0 0-4.17 5.32c-.37 1.4-.42 3.6-.1 5.09.3 1.43.7 2.45 1.39 3.4a7.77 7.77 0 0 0 4.51 2.98c1.27.32 3.47.32 4.72 0a7.58 7.58 0 0 0 5.4-4.75c.43-1.14.5-1.07-1.23-1.07h-1.5l-.35.73a4.61 4.61 0 0 1-4 2.7c-2.41.16-4.35-.8-5.34-2.66a8.24 8.24 0 0 1-.8-2.75v-.37H94l-.07-1.1A9.7 9.7 0 0 0 92 3.9a7.53 7.53 0 0 0-3.99-2.64 11.3 11.3 0 0 0-4.13-.19ZM55.08 18.5h2.8v-7.17c0-3.94.05-7.16.1-7.16.04 0 1.19 3.23 2.55 7.16L63 18.5h3.27l2.4-7.17a149.2 149.2 0 0 1 2.5-7.16c.06 0 .1 2.88.1 7.16v7.17h2.8V1.25h-4.81l-.44 1.37a427.08 427.08 0 0 1-4.08 12.5c-.04 0-1.15-3.11-2.47-6.93l-2.4-6.94h-4.8v17.24ZM9.54 3.6a5.3 5.3 0 0 1 2.85 1.46c1.8 2 2.17 5.82.83 8.5a4.8 4.8 0 0 1-3.08 2.52c-.8.2-2.38.22-3.15.01-1.86-.5-3.2-2-3.68-4.17A12.06 12.06 0 0 1 3.3 7.9a5.23 5.23 0 0 1 6.24-4.3Zm35.02 0c.96.14 1.77.52 2.5 1.18 1.22 1.08 1.81 2.54 1.9 4.65.14 2.84-.8 5.06-2.58 6.13a5 5 0 0 1-2.78.69c-2 0-3.33-.65-4.32-2.11-1.15-1.71-1.49-4.32-.84-6.62a5.2 5.2 0 0 1 2.7-3.47 5.59 5.59 0 0 1 3.42-.45Zm41.99 0A4.7 4.7 0 0 1 89.23 5a6.61 6.61 0 0 1 1.44 2.67l.07.4h-5.25c-2.88 0-5.24 0-5.24-.03l.18-.64c.29-.96.7-1.66 1.37-2.37a5.15 5.15 0 0 1 4.75-1.43Z"/></svg>
