<svg xmlns="http://www.w3.org/2000/svg" width="20" height="20" fill="#0061FE" viewBox="0 0 20 20"><path d="M9.1.03a9.97 9.97 0 0 0-8.06 5.5 10.15 10.15 0 0 0 .5 9.85 10.18 10.18 0 0 0 5.99 4.36c1.27.35 3.74.34 5.04 0a10.14 10.14 0 0 0 7.21-7.47c.27-1.1.3-3.15.05-4.3A10.2 10.2 0 0 0 14.47 1 10.58 10.58 0 0 0 9.1.03ZM6.14 7.1c1.1.33 2.12 1.6 2.12 2.65v.34h-.84c-.68 0-.84-.03-.84-.17 0-.6-.76-1.28-1.45-1.28-.68 0-1.45.67-1.45 1.28 0 .14-.16.17-.9.17h-.9l.07-.42A3.17 3.17 0 0 1 6.14 7.1Zm9.71.05a3.29 3.29 0 0 1 1.99 2.42l.07.52h-.86c-.54 0-.85-.04-.85-.12 0-.3-.4-.93-.72-1.12-.88-.54-2.19.07-2.19 1 0 .23-.06.24-.9.24h-.91l.07-.46a3.3 3.3 0 0 1 2.6-2.66c.63-.1 1.03-.06 1.7.18Z"/></svg>
